<svg width="383" height="383" viewBox="0 0 383 383" fill="none" xmlns="http://www.w3.org/2000/svg">
<g filter="url(#filter0_d_115_15)">
<circle cx="191.5" cy="191.5" r="160.5" fill="white"/>
</g>
<g filter="url(#filter1_d_115_15)">
<circle cx="191.501" cy="191.501" r="126.455" fill="white"/>
</g>
<g filter="url(#filter2_d_115_15)">
<circle cx="191.5" cy="191.5" r="75.5" fill="white"/>
</g>
<mask id="path-4-inside-1_115_15" fill="white">
<path d="M191.501 65.0469C219.565 65.0469 246.832 74.3823 269.006 91.5827C291.181 108.783 307.004 132.871 313.983 160.053C320.962 187.236 318.701 215.967 307.556 241.723C296.41 267.478 277.014 288.795 252.421 302.314L227.816 257.557C242.475 249.498 254.037 236.791 260.681 221.438C267.325 206.085 268.673 188.959 264.513 172.755C260.352 156.552 250.92 142.193 237.702 131.94C224.484 121.687 208.23 116.122 191.501 116.122V65.0469Z"/>
</mask>
<path d="M191.501 65.0469C219.565 65.0469 246.832 74.3823 269.006 91.5827C291.181 108.783 307.004 132.871 313.983 160.053C320.962 187.236 318.701 215.967 307.556 241.723C296.41 267.478 277.014 288.795 252.421 302.314L227.816 257.557C242.475 249.498 254.037 236.791 260.681 221.438C267.325 206.085 268.673 188.959 264.513 172.755C260.352 156.552 250.92 142.193 237.702 131.94C224.484 121.687 208.23 116.122 191.501 116.122V65.0469Z" stroke="url(#paint0_angular_115_15)" stroke-width="102.239" mask="url(#path-4-inside-1_115_15)"/>
<path d="M165.209 203.11V209.453H160.346V203.11H146.204V197.378L158.467 179.806H165.209V198.811H168.381V203.11H165.209ZM160.346 183.377L149.845 198.811H160.346V183.377ZM193.165 187.182C193.165 188.858 192.789 190.432 192.037 191.904C191.301 193.361 190.244 194.794 188.866 196.203C187.503 197.597 185.859 198.999 183.932 200.409C182.006 201.818 179.868 203.306 177.519 204.872H192.578V209.453H172.468V205.224C175.491 202.844 177.997 200.753 179.986 198.952C181.99 197.151 183.588 195.553 184.778 194.16C185.968 192.75 186.806 191.497 187.292 190.401C187.777 189.289 188.02 188.232 188.02 187.229C188.02 186.759 187.95 186.258 187.809 185.726C187.683 185.178 187.448 184.676 187.104 184.222C186.759 183.752 186.29 183.369 185.694 183.071C185.099 182.758 184.348 182.601 183.439 182.601C182.515 182.601 181.724 182.774 181.066 183.118C180.424 183.463 179.892 183.901 179.469 184.434C179.062 184.951 178.748 185.53 178.529 186.172C178.326 186.814 178.2 187.441 178.153 188.052H173.009C173.196 184.998 174.183 182.711 175.969 181.192C177.754 179.673 180.291 178.913 183.58 178.913C185.115 178.913 186.477 179.109 187.668 179.5C188.858 179.892 189.86 180.448 190.675 181.168C191.489 181.889 192.108 182.758 192.531 183.776C192.954 184.794 193.165 185.929 193.165 187.182ZM232.327 201.748C232.327 203.079 232.131 204.238 231.739 205.224C231.364 206.196 230.847 207.01 230.189 207.668C229.531 208.31 228.756 208.795 227.863 209.124C226.971 209.437 226.023 209.594 225.021 209.594C224.018 209.594 223.071 209.437 222.178 209.124C221.301 208.795 220.534 208.31 219.876 207.668C219.218 207.01 218.693 206.196 218.302 205.224C217.926 204.238 217.738 203.079 217.738 201.748C217.738 200.432 217.926 199.281 218.302 198.294C218.693 197.308 219.218 196.493 219.876 195.851C220.534 195.193 221.301 194.708 222.178 194.395C223.071 194.066 224.018 193.901 225.021 193.901C226.023 193.901 226.971 194.066 227.863 194.395C228.756 194.708 229.531 195.193 230.189 195.851C230.847 196.493 231.364 197.308 231.739 198.294C232.131 199.281 232.327 200.432 232.327 201.748ZM209.281 210.04H204.512L221.92 179.336H226.689L209.281 210.04ZM213.087 187.605C213.087 188.921 212.891 190.072 212.499 191.059C212.123 192.045 211.599 192.867 210.925 193.525C210.267 194.167 209.492 194.653 208.599 194.982C207.707 195.295 206.759 195.452 205.757 195.452C204.755 195.452 203.815 195.295 202.938 194.982C202.061 194.653 201.293 194.167 200.636 193.525C199.978 192.867 199.453 192.045 199.062 191.059C198.686 190.072 198.498 188.921 198.498 187.605C198.498 186.29 198.686 185.139 199.062 184.152C199.453 183.165 199.978 182.351 200.636 181.709C201.293 181.051 202.061 180.565 202.938 180.252C203.815 179.923 204.755 179.759 205.757 179.759C206.759 179.759 207.707 179.923 208.599 180.252C209.492 180.565 210.267 181.051 210.925 181.709C211.599 182.351 212.123 183.165 212.499 184.152C212.891 185.139 213.087 186.29 213.087 187.605ZM228.333 201.748C228.333 201.043 228.278 200.401 228.169 199.821C228.075 199.242 227.902 198.748 227.652 198.341C227.401 197.918 227.057 197.597 226.618 197.378C226.195 197.159 225.663 197.049 225.021 197.049C224.394 197.049 223.862 197.159 223.423 197.378C223 197.597 222.656 197.918 222.39 198.341C222.139 198.748 221.959 199.242 221.849 199.821C221.74 200.401 221.685 201.043 221.685 201.748C221.685 202.452 221.732 203.095 221.826 203.674C221.935 204.238 222.115 204.723 222.366 205.131C222.617 205.538 222.953 205.859 223.376 206.094C223.815 206.313 224.363 206.423 225.021 206.423C225.663 206.423 226.195 206.313 226.618 206.094C227.057 205.859 227.401 205.538 227.652 205.131C227.902 204.723 228.075 204.238 228.169 203.674C228.278 203.095 228.333 202.452 228.333 201.748ZM209.093 187.605C209.093 186.9 209.038 186.258 208.928 185.679C208.834 185.099 208.654 184.606 208.388 184.199C208.137 183.776 207.801 183.455 207.378 183.236C206.955 183.016 206.415 182.907 205.757 182.907C205.13 182.907 204.606 183.016 204.183 183.236C203.76 183.455 203.415 183.776 203.149 184.199C202.899 184.606 202.719 185.099 202.609 185.679C202.499 186.258 202.444 186.9 202.444 187.605C202.444 188.31 202.491 188.952 202.585 189.532C202.695 190.095 202.867 190.581 203.102 190.988C203.353 191.395 203.69 191.716 204.112 191.951C204.551 192.171 205.099 192.28 205.757 192.28C206.415 192.28 206.955 192.171 207.378 191.951C207.801 191.716 208.137 191.395 208.388 190.988C208.654 190.581 208.834 190.095 208.928 189.532C209.038 188.952 209.093 188.31 209.093 187.605Z" fill="url(#paint1_linear_115_15)"/>
<defs>
<filter id="filter0_d_115_15" x="0.132656" y="0.132656" width="382.735" height="382.735" filterUnits="userSpaceOnUse" color-interpolation-filters="sRGB">
<feFlood flood-opacity="0" result="BackgroundImageFix"/>
<feColorMatrix in="SourceAlpha" type="matrix" values="0 0 0 0 0 0 0 0 0 0 0 0 0 0 0 0 0 0 127 0" result="hardAlpha"/>
<feOffset/>
<feGaussianBlur stdDeviation="15.4337"/>
<feColorMatrix type="matrix" values="0 0 0 0 0.62542 0 0 0 0 0.708463 0 0 0 0 0.791507 0 0 0 0.2 0"/>
<feBlend mode="multiply" in2="BackgroundImageFix" result="effect1_dropShadow_115_15"/>
<feBlend mode="normal" in="SourceGraphic" in2="effect1_dropShadow_115_15" result="shape"/>
</filter>
<filter id="filter1_d_115_15" x="34.1795" y="34.1795" width="314.643" height="314.643" filterUnits="userSpaceOnUse" color-interpolation-filters="sRGB">
<feFlood flood-opacity="0" result="BackgroundImageFix"/>
<feColorMatrix in="SourceAlpha" type="matrix" values="0 0 0 0 0 0 0 0 0 0 0 0 0 0 0 0 0 0 127 0" result="hardAlpha"/>
<feOffset/>
<feGaussianBlur stdDeviation="15.4337"/>
<feColorMatrix type="matrix" values="0 0 0 0 0.62542 0 0 0 0 0.708463 0 0 0 0 0.791507 0 0 0 0.3 0"/>
<feBlend mode="multiply" in2="BackgroundImageFix" result="effect1_dropShadow_115_15"/>
<feBlend mode="normal" in="SourceGraphic" in2="effect1_dropShadow_115_15" result="shape"/>
</filter>
<filter id="filter2_d_115_15" x="85.1327" y="85.1327" width="212.735" height="212.735" filterUnits="userSpaceOnUse" color-interpolation-filters="sRGB">
<feFlood flood-opacity="0" result="BackgroundImageFix"/>
<feColorMatrix in="SourceAlpha" type="matrix" values="0 0 0 0 0 0 0 0 0 0 0 0 0 0 0 0 0 0 127 0" result="hardAlpha"/>
<feOffset/>
<feGaussianBlur stdDeviation="15.4337"/>
<feColorMatrix type="matrix" values="0 0 0 0 0.62542 0 0 0 0 0.708463 0 0 0 0 0.791507 0 0 0 0.3 0"/>
<feBlend mode="multiply" in2="BackgroundImageFix" result="effect1_dropShadow_115_15"/>
<feBlend mode="normal" in="SourceGraphic" in2="effect1_dropShadow_115_15" result="shape"/>
</filter>
<radialGradient id="paint0_angular_115_15" cx="0" cy="0" r="1" gradientUnits="userSpaceOnUse" gradientTransform="translate(191.501 191.501) rotate(-90) scale(126.455 134.406)">
<stop stop-color="#39C7EC"/>
<stop offset="0.755208" stop-color="#0050EC"/>
</radialGradient>
<linearGradient id="paint1_linear_115_15" x1="148.672" y1="159.453" x2="240.338" y2="209.619" gradientUnits="userSpaceOnUse">
<stop stop-color="#39C7EC"/>
<stop offset="0.0001" stop-color="#39C7EC"/>
<stop offset="1" stop-color="#0050EC"/>
</linearGradient>
</defs>
</svg>
