<svg width="383" height="383" viewBox="0 0 383 383" fill="none" xmlns="http://www.w3.org/2000/svg">
<g filter="url(#filter0_d_115_15)">
<circle cx="191.5" cy="191.5" r="160.5" fill="white"/>
</g>
<g filter="url(#filter1_d_115_15)">
<circle cx="191.501" cy="191.501" r="126.455" fill="white"/>
</g>
<g filter="url(#filter2_d_115_15)">
<circle cx="191.5" cy="191.5" r="75.5" fill="white"/>
</g>
<mask id="path-4-inside-1_115_15" fill="white">
<path d="M191.501 65.0469C220.928 65.0469 249.433 75.3094 272.107 94.0665L239.55 133.421C226.034 122.239 209.042 116.122 191.501 116.122V65.0469Z"/>
</mask>
<path d="M191.501 65.0469C220.928 65.0469 249.433 75.3094 272.107 94.0665L239.55 133.421C226.034 122.239 209.042 116.122 191.501 116.122V65.0469Z" stroke="url(#paint0_angular_115_15)" stroke-width="102.239" mask="url(#path-4-inside-1_115_15)"/>
<path d="M157.928 177.053H163.365V211.453H156.918V183.837L148.305 189.706V183.259L157.928 177.053ZM181.373 177.053H186.81V211.453H180.363V183.837L171.751 189.706V183.259L181.373 177.053ZM202.028 211.453H195.677L219.685 177.053H226.084L202.028 211.453ZM221.033 211.982C219.525 211.982 218.162 211.63 216.943 210.924C215.724 210.218 214.762 209.256 214.056 208.037C213.351 206.786 212.998 205.407 212.998 203.899C212.998 202.392 213.351 201.029 214.056 199.81C214.762 198.591 215.724 197.629 216.943 196.923C218.162 196.218 219.525 195.865 221.033 195.865C222.604 195.865 223.984 196.218 225.17 196.923C226.389 197.629 227.351 198.591 228.057 199.81C228.763 201.029 229.116 202.392 229.116 203.899C229.116 205.407 228.763 206.786 228.057 208.037C227.351 209.256 226.389 210.218 225.17 210.924C223.984 211.63 222.604 211.982 221.033 211.982ZM221.033 207.46C221.963 207.46 222.733 207.123 223.342 206.449C223.984 205.776 224.304 204.926 224.304 203.899C224.304 202.905 223.984 202.071 223.342 201.398C222.733 200.724 221.963 200.387 221.033 200.387C220.102 200.387 219.317 200.724 218.675 201.398C218.066 202.071 217.761 202.905 217.761 203.899C217.761 204.926 218.066 205.776 218.675 206.449C219.317 207.123 220.102 207.46 221.033 207.46ZM200.681 192.641C199.174 192.641 197.81 192.288 196.592 191.583C195.373 190.877 194.41 189.915 193.705 188.696C192.999 187.445 192.646 186.066 192.646 184.558C192.646 183.051 192.999 181.688 193.705 180.469C194.41 179.25 195.373 178.288 196.592 177.582C197.81 176.876 199.174 176.524 200.681 176.524C202.253 176.524 203.632 176.876 204.819 177.582C206.038 178.288 207 179.25 207.706 180.469C208.411 181.688 208.764 183.051 208.764 184.558C208.764 186.066 208.411 187.445 207.706 188.696C207 189.915 206.038 190.877 204.819 191.583C203.632 192.288 202.253 192.641 200.681 192.641ZM200.681 188.119C201.611 188.119 202.381 187.782 202.99 187.108C203.632 186.435 203.953 185.585 203.953 184.558C203.953 183.564 203.632 182.73 202.99 182.056C202.381 181.383 201.611 181.046 200.681 181.046C199.751 181.046 198.965 181.383 198.324 182.056C197.714 182.73 197.409 183.564 197.409 184.558C197.409 185.585 197.714 186.435 198.324 187.108C198.965 187.782 199.751 188.119 200.681 188.119Z" fill="url(#paint1_linear_115_15)"/>
<defs>
<filter id="filter0_d_115_15" x="0.132656" y="0.132656" width="382.735" height="382.735" filterUnits="userSpaceOnUse" color-interpolation-filters="sRGB">
<feFlood flood-opacity="0" result="BackgroundImageFix"/>
<feColorMatrix in="SourceAlpha" type="matrix" values="0 0 0 0 0 0 0 0 0 0 0 0 0 0 0 0 0 0 127 0" result="hardAlpha"/>
<feOffset/>
<feGaussianBlur stdDeviation="15.4337"/>
<feColorMatrix type="matrix" values="0 0 0 0 0.62542 0 0 0 0 0.708463 0 0 0 0 0.791507 0 0 0 0.2 0"/>
<feBlend mode="multiply" in2="BackgroundImageFix" result="effect1_dropShadow_115_15"/>
<feBlend mode="normal" in="SourceGraphic" in2="effect1_dropShadow_115_15" result="shape"/>
</filter>
<filter id="filter1_d_115_15" x="34.1795" y="34.1795" width="314.643" height="314.643" filterUnits="userSpaceOnUse" color-interpolation-filters="sRGB">
<feFlood flood-opacity="0" result="BackgroundImageFix"/>
<feColorMatrix in="SourceAlpha" type="matrix" values="0 0 0 0 0 0 0 0 0 0 0 0 0 0 0 0 0 0 127 0" result="hardAlpha"/>
<feOffset/>
<feGaussianBlur stdDeviation="15.4337"/>
<feColorMatrix type="matrix" values="0 0 0 0 0.62542 0 0 0 0 0.708463 0 0 0 0 0.791507 0 0 0 0.3 0"/>
<feBlend mode="multiply" in2="BackgroundImageFix" result="effect1_dropShadow_115_15"/>
<feBlend mode="normal" in="SourceGraphic" in2="effect1_dropShadow_115_15" result="shape"/>
</filter>
<filter id="filter2_d_115_15" x="85.1327" y="85.1327" width="212.735" height="212.735" filterUnits="userSpaceOnUse" color-interpolation-filters="sRGB">
<feFlood flood-opacity="0" result="BackgroundImageFix"/>
<feColorMatrix in="SourceAlpha" type="matrix" values="0 0 0 0 0 0 0 0 0 0 0 0 0 0 0 0 0 0 127 0" result="hardAlpha"/>
<feOffset/>
<feGaussianBlur stdDeviation="15.4337"/>
<feColorMatrix type="matrix" values="0 0 0 0 0.62542 0 0 0 0 0.708463 0 0 0 0 0.791507 0 0 0 0.3 0"/>
<feBlend mode="multiply" in2="BackgroundImageFix" result="effect1_dropShadow_115_15"/>
<feBlend mode="normal" in="SourceGraphic" in2="effect1_dropShadow_115_15" result="shape"/>
</filter>
<radialGradient id="paint0_angular_115_15" cx="0" cy="0" r="1" gradientUnits="userSpaceOnUse" gradientTransform="translate(191.501 191.501) rotate(-90) scale(126.455 134.406)">
<stop stop-color="#39C7EC"/>
<stop offset="0.755208" stop-color="#0050EC"/>
</radialGradient>
<linearGradient id="paint1_linear_115_15" x1="150.483" y1="159.453" x2="239.866" y2="206.195" gradientUnits="userSpaceOnUse">
<stop stop-color="#39C7EC"/>
<stop offset="0.0001" stop-color="#39C7EC"/>
<stop offset="1" stop-color="#0050EC"/>
</linearGradient>
</defs>
</svg>
